<svg xmlns="http://www.w3.org/2000/svg" width="24" height="24" viewBox="0 0 24 24" fill="none" stroke="currentColor" stroke-width="2" stroke-linecap="round" stroke-linejoin="round" class="lucide lucide-layers">
  <path d="m12.83 2.18a2 2 0 0 0-1.66 0L2.6 6.08a1 1 0 0 0 0 1.83l8.58 3.91a2 2 0 0 0 1.66 0l8.58-3.9a1 1 0 0 0 0-1.83Z" fill="#3b82f6"/>
  <path d="m22 12.5-9.58 4.36a2 2 0 0 1-1.66 0L2 12.5" stroke="#3b82f6"/>
  <path d="m22 17.5-9.58 4.36a2 2 0 0 1-1.66 0L2 17.5" stroke="#3b82f6"/>
</svg>